<?xml version="1.0" encoding="UTF-8"?>
<svg width="80px" height="388px" viewBox="0 0 80 388" version="1.1" xmlns="http://www.w3.org/2000/svg" xmlns:xlink="http://www.w3.org/1999/xlink">
    <!-- Generator: Sketch 42 (36781) - http://www.bohemiancoding.com/sketch -->
    <title>Shoal Creek</title>
    <desc>Created with Sketch.</desc>
    <defs></defs>
    <g id="Burnet-Map" stroke="none" stroke-width="1" fill="none" fill-rule="evenodd">
        <g id="map" transform="translate(-7.000000, -446.000000)" stroke="#5695EC" stroke-width="2">
            <g id="Map" transform="translate(8.000000, 42.000000)">
                <path id="Shoal-Creek" d="M72.6464844,405.054688 L77.8574219,438.201172 L61.3652344,457.226563 L58.1328125,469.808594 L46.8759766,480.877441 L35.3916016,487.703125 C35.3916016,487.703125 27.6137695,495.960449 33.9345703,504.327148 C27.6137695,511.095215 26.4726562,512.502441 26.4726562,512.502441 L23.4311523,532.867188 L15.6308594,542.687012 L15.4824219,557.479492 L13.1020508,566.562012 L0.592773438,595.812012 L4.97509766,611.445313 L11.300293,616.884766 L17.8842773,623.09375 L23.7578125,630.44043 L19.8164062,640.160156 L19.5205078,654.493164 L26.2363281,668.552246 L28.3583984,678.533691 L28.5766602,684.970215 L27.2661133,694.273438 L32.0102539,706.136719 L27.7192383,716.010254 L24.3696289,716.305176 L9.90039062,710.245605 C9.90039062,710.245605 3.51953125,707.129883 3.51953125,713.120605 C3.51953125,717.118164 3.55859375,719.131348 3.55859375,719.131348 L5.49462891,735.554199 C5.49462891,735.554199 7.14445005,741.840654 5.96412365,748.713404 C6.19816624,755.717509 5.49462891,747.356953 4.97509766,759.004526 C4.77184817,763.561256 3.51953125,759.004526 4.97509766,767.779616 C6.43066406,776.554705 2.48435256,761.251395 7.73509978,791.149689"></path>
            </g>
        </g>
    </g>
</svg>